<svg width="1095" height="467" viewBox="0 0 1095 467" fill="none" xmlns="http://www.w3.org/2000/svg">
<path d="M325.906 160L363.761 274.489H365.253L403.037 160H432.014L380.736 305.455H348.207L297 160H325.906Z" fill="white"/>
<path d="M477.903 307.585C467.249 307.585 458.016 305.241 450.204 300.554C442.391 295.866 436.331 289.309 432.022 280.881C427.761 272.453 425.63 262.604 425.63 251.335C425.63 240.066 427.761 230.194 432.022 221.719C436.331 213.243 442.391 206.662 450.204 201.974C458.016 197.287 467.249 194.943 477.903 194.943C488.556 194.943 497.789 197.287 505.602 201.974C513.414 206.662 519.451 213.243 523.712 221.719C528.021 230.194 530.175 240.066 530.175 251.335C530.175 262.604 528.021 272.453 523.712 280.881C519.451 289.309 513.414 295.866 505.602 300.554C497.789 305.241 488.556 307.585 477.903 307.585ZM478.045 286.989C483.821 286.989 488.651 285.402 492.533 282.23C496.416 279.01 499.304 274.702 501.198 269.304C503.139 263.906 504.11 257.893 504.11 251.264C504.11 244.588 503.139 238.551 501.198 233.153C499.304 227.708 496.416 223.376 492.533 220.156C488.651 216.937 483.821 215.327 478.045 215.327C472.126 215.327 467.202 216.937 463.272 220.156C459.389 223.376 456.478 227.708 454.536 233.153C452.642 238.551 451.695 244.588 451.695 251.264C451.695 257.893 452.642 263.906 454.536 269.304C456.478 274.702 459.389 279.01 463.272 282.23C467.202 285.402 472.126 286.989 478.045 286.989Z" fill="white"/>
<path d="M584.48 307.372C575.91 307.372 568.24 305.17 561.469 300.767C554.698 296.364 549.348 289.972 545.418 281.591C541.488 273.21 539.523 263.03 539.523 251.051C539.523 238.93 541.511 228.703 545.489 220.369C549.513 211.989 554.935 205.668 561.753 201.406C568.571 197.098 576.17 194.943 584.551 194.943C590.943 194.943 596.199 196.032 600.318 198.21C604.437 200.341 607.705 202.921 610.119 205.952C612.534 208.935 614.404 211.752 615.73 214.403H616.795V160H642.577V305.455H617.293V288.267H615.73C614.404 290.919 612.487 293.736 609.977 296.719C607.468 299.654 604.153 302.164 600.034 304.247C595.915 306.33 590.73 307.372 584.48 307.372ZM591.653 286.278C597.098 286.278 601.739 284.811 605.574 281.875C609.409 278.892 612.321 274.749 614.31 269.446C616.298 264.143 617.293 257.964 617.293 250.909C617.293 243.854 616.298 237.723 614.31 232.514C612.368 227.306 609.48 223.258 605.645 220.369C601.857 217.481 597.193 216.037 591.653 216.037C585.924 216.037 581.142 217.528 577.307 220.511C573.472 223.494 570.583 227.614 568.642 232.869C566.701 238.125 565.73 244.138 565.73 250.909C565.73 257.727 566.701 263.812 568.642 269.162C570.631 274.465 573.543 278.655 577.378 281.733C581.26 284.763 586.019 286.278 591.653 286.278Z" fill="white"/>
<path d="M710.269 307.585C699.332 307.585 689.886 305.312 681.931 300.767C674.024 296.174 667.94 289.688 663.678 281.307C659.417 272.879 657.286 262.959 657.286 251.548C657.286 240.327 659.417 230.478 663.678 222.003C667.987 213.48 674 206.851 681.718 202.116C689.436 197.334 698.503 194.943 708.92 194.943C715.643 194.943 721.988 196.032 727.954 198.21C733.967 200.341 739.27 203.655 743.863 208.153C748.503 212.652 752.149 218.381 754.8 225.341C757.452 232.254 758.778 240.492 758.778 250.057V257.94H669.36V240.611H734.133C734.085 235.687 733.02 231.307 730.937 227.472C728.853 223.589 725.942 220.535 722.201 218.31C718.508 216.084 714.199 214.972 709.275 214.972C704.019 214.972 699.403 216.25 695.425 218.807C691.448 221.316 688.347 224.631 686.121 228.75C683.943 232.822 682.831 237.296 682.783 242.173V257.301C682.783 263.646 683.943 269.091 686.263 273.636C688.584 278.134 691.827 281.591 695.994 284.006C700.16 286.373 705.037 287.557 710.624 287.557C714.365 287.557 717.75 287.036 720.781 285.994C723.811 284.905 726.439 283.319 728.664 281.236C730.889 279.152 732.57 276.572 733.707 273.494L757.712 276.193C756.197 282.538 753.309 288.078 749.048 292.812C744.834 297.5 739.436 301.146 732.854 303.75C726.273 306.307 718.745 307.585 710.269 307.585Z" fill="white"/>
<path d="M786.875 306.591C783.371 306.591 780.365 305.336 777.855 302.827C775.346 300.317 774.091 297.311 774.091 293.807C774.091 290.303 775.346 287.296 777.855 284.787C780.365 282.277 783.371 281.023 786.875 281.023C790.379 281.023 793.385 282.277 795.895 284.787C798.404 287.296 799.659 290.303 799.659 293.807C799.659 296.127 799.067 298.258 797.884 300.199C796.747 302.14 795.208 303.703 793.267 304.886C791.373 306.023 789.242 306.591 786.875 306.591Z" fill="#1FA463"/>
</svg>
